# xmcd
#
# Track frame offsets: 
#        150
#        17462
#        33119
#        44084
#        58364
#        72741
#        86058
#        103595
#        120372
#        135281
#        148378
#        161251
#        177926
#        190759
#        204760
#        225402
#        239713
#        259856
#        274735
#        283901
#        303694
#        322602
#        342248
#
# Disc length: 4731 seconds
#
# Revision: 0
# Processed by: cddbd v1.5.2PL0 Copyright (c) Steve Scherf et al.
# Submitted via: ExactAudioCopyFreeDBPlugin 1.0
#
DISCID=4f127917
DTITLE=grupe Karcema - Geriausiu dainu albumas
DYEAR=2012
DGENRE=Country
TTITLE0=Sianakt
TTITLE1=As tikiu
TTITLE2=Laiminga diena
TTITLE3=O mano meile
TTITLE4=Per marias
TTITLE5=Drugelis
TTITLE6=Sugalvojau tave
TTITLE7=Pamario krastas
TTITLE8=Stintapukis
TTITLE9=Simtas ir viena naktis
TTITLE10=Kelye
TTITLE11=Pieniu laivas
TTITLE12=Esu zvejys
TTITLE13=Vejas i bures
TTITLE14=Gyvenimas
TTITLE15=Baltos Kaledos
TTITLE16=Daina Silutei (su Z. Adomaitiene)
TTITLE17=Neklausk tu manes
TTITLE18=Tykus ramus vakarelis
TTITLE19=Parnes namo
TTITLE20=Merguzele
TTITLE21=Tu namuose
TTITLE22=Alaus daina
EXTD=
EXTT0=
EXTT1=
EXTT2=
EXTT3=
EXTT4=
EXTT5=
EXTT6=
EXTT7=
EXTT8=
EXTT9=
EXTT10=
EXTT11=
EXTT12=
EXTT13=
EXTT14=
EXTT15=
EXTT16=
EXTT17=
EXTT18=
EXTT19=
EXTT20=
EXTT21=
EXTT22=
PLAYORDER=
